<?xml version="1.0" encoding="UTF-8" standalone="no"?>
<!DOCTYPE svg PUBLIC "-//W3C//DTD SVG 1.1//EN"
 "http://www.w3.org/Graphics/SVG/1.1/DTD/svg11.dtd">
<!-- Generated by graphviz version 2.38.0 (20140413.2041)
 -->
<!-- Title: inheritance4052a5617b Pages: 1 -->
<svg width="418pt" height="27pt"
 viewBox="0.00 0.00 418.00 27.00" xmlns="http://www.w3.org/2000/svg" xmlns:xlink="http://www.w3.org/1999/xlink">
<g id="graph0" class="graph" transform="scale(1 1) rotate(0) translate(4 23)">
<title>inheritance4052a5617b</title>
<polygon fill="white" stroke="none" points="-4,4 -4,-23 414,-23 414,4 -4,4"/>
<!-- FourierTransformReconstructor -->
<g id="node1" class="node"><title>FourierTransformReconstructor</title>
<g id="a_node1"><a xlink:href="../api/FTR.ftr.FourierTransformReconstructor.html#FTR.ftr.FourierTransformReconstructor" xlink:title="A reconstructor which uses the fourier transform to turn slopes into an">
<polygon fill="none" stroke="black" stroke-width="0.5" points="271,-19 115,-19 115,-0 271,-0 271,-19"/>
<text text-anchor="middle" x="193" y="-7" font-family="Vera Sans, DejaVu Sans, Liberation Sans, Arial, Helvetica, sans" font-size="10.00">FourierTransformReconstructor</text>
</a>
</g>
</g>
<!-- SlopeManagedFTR -->
<g id="node3" class="node"><title>SlopeManagedFTR</title>
<g id="a_node3"><a xlink:href="../api/FTR.slopemanage.SlopeManagedFTR.html#FTR.slopemanage.SlopeManagedFTR" xlink:title="An FTR Reconstructor with slope management to remove the effects of finite apertures.">
<polygon fill="none" stroke="black" stroke-width="0.5" points="410,-19 307,-19 307,-0 410,-0 410,-19"/>
<text text-anchor="middle" x="358.5" y="-7" font-family="Vera Sans, DejaVu Sans, Liberation Sans, Arial, Helvetica, sans" font-size="10.00">SlopeManagedFTR</text>
</a>
</g>
</g>
<!-- FourierTransformReconstructor&#45;&gt;SlopeManagedFTR -->
<g id="edge2" class="edge"><title>FourierTransformReconstructor&#45;&gt;SlopeManagedFTR</title>
<path fill="none" stroke="black" stroke-width="0.5" d="M271.441,-9.5C281.703,-9.5 292.055,-9.5 301.85,-9.5"/>
<polygon fill="black" stroke="black" stroke-width="0.5" points="301.917,-11.2501 306.917,-9.5 301.917,-7.7501 301.917,-11.2501"/>
</g>
<!-- Reconstructor -->
<g id="node2" class="node"><title>Reconstructor</title>
<g id="a_node2"><a xlink:title="A basic reconstructor.">
<polygon fill="none" stroke="black" stroke-width="0.5" points="79,-19 0,-19 0,-0 79,-0 79,-19"/>
<text text-anchor="middle" x="39.5" y="-7" font-family="Vera Sans, DejaVu Sans, Liberation Sans, Arial, Helvetica, sans" font-size="10.00">Reconstructor</text>
</a>
</g>
</g>
<!-- Reconstructor&#45;&gt;FourierTransformReconstructor -->
<g id="edge1" class="edge"><title>Reconstructor&#45;&gt;FourierTransformReconstructor</title>
<path fill="none" stroke="black" stroke-width="0.5" d="M79.1218,-9.5C88.5392,-9.5 98.9738,-9.5 109.584,-9.5"/>
<polygon fill="black" stroke="black" stroke-width="0.5" points="109.803,-11.2501 114.803,-9.5 109.803,-7.7501 109.803,-11.2501"/>
</g>
</g>
</svg>
