<?xml version="1.0" encoding="UTF-8" standalone="no"?>
<!DOCTYPE svg PUBLIC "-//W3C//DTD SVG 1.1//EN"
 "http://www.w3.org/Graphics/SVG/1.1/DTD/svg11.dtd">
<!-- Generated by graphviz version 2.38.0 (20140413.2041)
 -->
<!-- Title: inheritance3596bf003f Pages: 1 -->
<svg width="279pt" height="64pt"
 viewBox="0.00 0.00 279.00 64.00" xmlns="http://www.w3.org/2000/svg" xmlns:xlink="http://www.w3.org/1999/xlink">
<g id="graph0" class="graph" transform="scale(1 1) rotate(0) translate(4 60)">
<title>inheritance3596bf003f</title>
<polygon fill="white" stroke="none" points="-4,4 -4,-60 275,-60 275,4 -4,4"/>
<!-- FTRFilter -->
<g id="node1" class="node"><title>FTRFilter</title>
<g id="a_node1"><a xlink:href="../api/FTR.ftr.FTRFilter.html#FTR.ftr.FTRFilter" xlink:title="FTRFilter(gx,gy,name)">
<polygon fill="none" stroke="black" stroke-width="0.5" points="68.5,-19 10.5,-19 10.5,-0 68.5,-0 68.5,-19"/>
<text text-anchor="middle" x="39.5" y="-7" font-family="Vera Sans, DejaVu Sans, Liberation Sans, Arial, Helvetica, sans" font-size="10.00">FTRFilter</text>
</a>
</g>
</g>
<!-- FourierTransformReconstructor -->
<g id="node2" class="node"><title>FourierTransformReconstructor</title>
<g id="a_node2"><a xlink:href="../api/FTR.ftr.FourierTransformReconstructor.html#FTR.ftr.FourierTransformReconstructor" xlink:title="A reconstructor which uses the fourier transform to turn slopes into an">
<polygon fill="none" stroke="black" stroke-width="0.5" points="271,-56 115,-56 115,-37 271,-37 271,-56"/>
<text text-anchor="middle" x="193" y="-44" font-family="Vera Sans, DejaVu Sans, Liberation Sans, Arial, Helvetica, sans" font-size="10.00">FourierTransformReconstructor</text>
</a>
</g>
</g>
<!-- Reconstructor -->
<g id="node3" class="node"><title>Reconstructor</title>
<g id="a_node3"><a xlink:title="A basic reconstructor.">
<polygon fill="none" stroke="black" stroke-width="0.5" points="79,-56 0,-56 0,-37 79,-37 79,-56"/>
<text text-anchor="middle" x="39.5" y="-44" font-family="Vera Sans, DejaVu Sans, Liberation Sans, Arial, Helvetica, sans" font-size="10.00">Reconstructor</text>
</a>
</g>
</g>
<!-- Reconstructor&#45;&gt;FourierTransformReconstructor -->
<g id="edge1" class="edge"><title>Reconstructor&#45;&gt;FourierTransformReconstructor</title>
<path fill="none" stroke="black" stroke-width="0.5" d="M79.1218,-46.5C88.5392,-46.5 98.9738,-46.5 109.584,-46.5"/>
<polygon fill="black" stroke="black" stroke-width="0.5" points="109.803,-48.2501 114.803,-46.5 109.803,-44.7501 109.803,-48.2501"/>
</g>
</g>
</svg>
