<?xml version="1.0" encoding="UTF-8" standalone="no"?>
<!DOCTYPE svg PUBLIC "-//W3C//DTD SVG 1.1//EN"
 "http://www.w3.org/Graphics/SVG/1.1/DTD/svg11.dtd">
<!-- Generated by graphviz version 2.38.0 (20140413.2041)
 -->
<!-- Title: inheritanceac7d1a4a3d Pages: 1 -->
<svg width="425pt" height="64pt"
 viewBox="0.00 0.00 425.00 64.00" xmlns="http://www.w3.org/2000/svg" xmlns:xlink="http://www.w3.org/1999/xlink">
<g id="graph0" class="graph" transform="scale(1 1) rotate(0) translate(4 60)">
<title>inheritanceac7d1a4a3d</title>
<polygon fill="white" stroke="none" points="-4,4 -4,-60 421,-60 421,4 -4,4"/>
<!-- CFTRBase -->
<g id="node1" class="node"><title>CFTRBase</title>
<polygon fill="none" stroke="black" stroke-width="0.5" points="226,-56 160,-56 160,-37 226,-37 226,-56"/>
<text text-anchor="middle" x="193" y="-44" font-family="Vera Sans, DejaVu Sans, Liberation Sans, Arial, Helvetica, sans" font-size="10.00">CFTRBase</text>
</g>
<!-- FastFTReconstructor -->
<g id="node3" class="node"><title>FastFTReconstructor</title>
<g id="a_node3"><a xlink:href="../api/FTR.ftr.FastFTReconstructor.html#FTR.ftr.FastFTReconstructor" xlink:title="A fourier transform reconstructor which implements the reconstruct">
<polygon fill="none" stroke="black" stroke-width="0.5" points="417,-37 307,-37 307,-18 417,-18 417,-37"/>
<text text-anchor="middle" x="362" y="-25" font-family="Vera Sans, DejaVu Sans, Liberation Sans, Arial, Helvetica, sans" font-size="10.00">FastFTReconstructor</text>
</a>
</g>
</g>
<!-- CFTRBase&#45;&gt;FastFTReconstructor -->
<g id="edge1" class="edge"><title>CFTRBase&#45;&gt;FastFTReconstructor</title>
<path fill="none" stroke="black" stroke-width="0.5" d="M226.199,-42.8366C247.614,-40.4002 276.379,-37.1276 301.837,-34.2312"/>
<polygon fill="black" stroke="black" stroke-width="0.5" points="302.111,-35.9614 306.881,-33.6573 301.715,-32.4838 302.111,-35.9614"/>
</g>
<!-- FTRFilter -->
<g id="node2" class="node"><title>FTRFilter</title>
<g id="a_node2"><a xlink:href="../api/FTR.ftr.FTRFilter.html#FTR.ftr.FTRFilter" xlink:title="FTRFilter(gx,gy,name)">
<polygon fill="none" stroke="black" stroke-width="0.5" points="68.5,-56 10.5,-56 10.5,-37 68.5,-37 68.5,-56"/>
<text text-anchor="middle" x="39.5" y="-44" font-family="Vera Sans, DejaVu Sans, Liberation Sans, Arial, Helvetica, sans" font-size="10.00">FTRFilter</text>
</a>
</g>
</g>
<!-- FourierTransformReconstructor -->
<g id="node4" class="node"><title>FourierTransformReconstructor</title>
<g id="a_node4"><a xlink:href="../api/FTR.ftr.FourierTransformReconstructor.html#FTR.ftr.FourierTransformReconstructor" xlink:title="A reconstructor which uses the fourier transform to turn slopes into an">
<polygon fill="none" stroke="black" stroke-width="0.5" points="271,-19 115,-19 115,-0 271,-0 271,-19"/>
<text text-anchor="middle" x="193" y="-7" font-family="Vera Sans, DejaVu Sans, Liberation Sans, Arial, Helvetica, sans" font-size="10.00">FourierTransformReconstructor</text>
</a>
</g>
</g>
<!-- FourierTransformReconstructor&#45;&gt;FastFTReconstructor -->
<g id="edge2" class="edge"><title>FourierTransformReconstructor&#45;&gt;FastFTReconstructor</title>
<path fill="none" stroke="black" stroke-width="0.5" d="M271.145,-17.815C281.334,-18.9132 291.65,-20.0251 301.481,-21.0847"/>
<polygon fill="black" stroke="black" stroke-width="0.5" points="301.416,-22.8378 306.574,-21.6338 301.791,-19.3579 301.416,-22.8378"/>
</g>
<!-- Reconstructor -->
<g id="node5" class="node"><title>Reconstructor</title>
<g id="a_node5"><a xlink:title="A basic reconstructor.">
<polygon fill="none" stroke="black" stroke-width="0.5" points="79,-19 0,-19 0,-0 79,-0 79,-19"/>
<text text-anchor="middle" x="39.5" y="-7" font-family="Vera Sans, DejaVu Sans, Liberation Sans, Arial, Helvetica, sans" font-size="10.00">Reconstructor</text>
</a>
</g>
</g>
<!-- Reconstructor&#45;&gt;FourierTransformReconstructor -->
<g id="edge3" class="edge"><title>Reconstructor&#45;&gt;FourierTransformReconstructor</title>
<path fill="none" stroke="black" stroke-width="0.5" d="M79.1218,-9.5C88.5392,-9.5 98.9738,-9.5 109.584,-9.5"/>
<polygon fill="black" stroke="black" stroke-width="0.5" points="109.803,-11.2501 114.803,-9.5 109.803,-7.7501 109.803,-11.2501"/>
</g>
</g>
</svg>
